<mxfile host="app.diagrams.net" modified="2023-08-17T15:49:48.586Z" agent="Mozilla/5.0 (Windows NT 10.0; Win64; x64) AppleWebKit/537.36 (KHTML, like Gecko) Chrome/115.0.0.0 Safari/537.36" etag="F4DkLP-OwXoKgR9RVghM" version="21.6.8" type="github">
  <diagram id="C5RBs43oDa-KdzZeNtuy" name="Page-1">
    <mxGraphModel dx="1050" dy="534" grid="1" gridSize="10" guides="1" tooltips="1" connect="1" arrows="1" fold="1" page="1" pageScale="1" pageWidth="827" pageHeight="1169" math="0" shadow="0">
      <root>
        <mxCell id="WIyWlLk6GJQsqaUBKTNV-0" />
        <mxCell id="WIyWlLk6GJQsqaUBKTNV-1" parent="WIyWlLk6GJQsqaUBKTNV-0" />
        <mxCell id="vaostGW_WSVgU1aV7aeb-2" value="" style="edgeStyle=orthogonalEdgeStyle;rounded=0;orthogonalLoop=1;jettySize=auto;html=1;" edge="1" parent="WIyWlLk6GJQsqaUBKTNV-1" source="vaostGW_WSVgU1aV7aeb-0" target="vaostGW_WSVgU1aV7aeb-1">
          <mxGeometry relative="1" as="geometry" />
        </mxCell>
        <mxCell id="vaostGW_WSVgU1aV7aeb-0" value="Scrape data using Instagram API" style="rounded=1;whiteSpace=wrap;html=1;" vertex="1" parent="WIyWlLk6GJQsqaUBKTNV-1">
          <mxGeometry x="70" y="80" width="120" height="60" as="geometry" />
        </mxCell>
        <mxCell id="vaostGW_WSVgU1aV7aeb-4" value="" style="edgeStyle=orthogonalEdgeStyle;rounded=0;orthogonalLoop=1;jettySize=auto;html=1;" edge="1" parent="WIyWlLk6GJQsqaUBKTNV-1" source="vaostGW_WSVgU1aV7aeb-1" target="vaostGW_WSVgU1aV7aeb-3">
          <mxGeometry relative="1" as="geometry" />
        </mxCell>
        <mxCell id="vaostGW_WSVgU1aV7aeb-1" value="Create Dataset" style="whiteSpace=wrap;html=1;rounded=1;" vertex="1" parent="WIyWlLk6GJQsqaUBKTNV-1">
          <mxGeometry x="240" y="80" width="120" height="60" as="geometry" />
        </mxCell>
        <mxCell id="vaostGW_WSVgU1aV7aeb-6" value="" style="edgeStyle=orthogonalEdgeStyle;rounded=0;orthogonalLoop=1;jettySize=auto;html=1;" edge="1" parent="WIyWlLk6GJQsqaUBKTNV-1" source="vaostGW_WSVgU1aV7aeb-3" target="vaostGW_WSVgU1aV7aeb-5">
          <mxGeometry relative="1" as="geometry" />
        </mxCell>
        <mxCell id="vaostGW_WSVgU1aV7aeb-9" value="" style="edgeStyle=orthogonalEdgeStyle;rounded=0;orthogonalLoop=1;jettySize=auto;html=1;" edge="1" parent="WIyWlLk6GJQsqaUBKTNV-1" source="vaostGW_WSVgU1aV7aeb-3" target="vaostGW_WSVgU1aV7aeb-8">
          <mxGeometry relative="1" as="geometry" />
        </mxCell>
        <mxCell id="vaostGW_WSVgU1aV7aeb-3" value="Perform EDA" style="whiteSpace=wrap;html=1;rounded=1;" vertex="1" parent="WIyWlLk6GJQsqaUBKTNV-1">
          <mxGeometry x="414" y="80" width="120" height="60" as="geometry" />
        </mxCell>
        <mxCell id="vaostGW_WSVgU1aV7aeb-5" value="Visualisation of Data" style="whiteSpace=wrap;html=1;rounded=1;" vertex="1" parent="WIyWlLk6GJQsqaUBKTNV-1">
          <mxGeometry x="590" y="80" width="120" height="60" as="geometry" />
        </mxCell>
        <mxCell id="vaostGW_WSVgU1aV7aeb-11" value="" style="edgeStyle=orthogonalEdgeStyle;rounded=0;orthogonalLoop=1;jettySize=auto;html=1;" edge="1" parent="WIyWlLk6GJQsqaUBKTNV-1" source="vaostGW_WSVgU1aV7aeb-8" target="vaostGW_WSVgU1aV7aeb-10">
          <mxGeometry relative="1" as="geometry" />
        </mxCell>
        <mxCell id="vaostGW_WSVgU1aV7aeb-8" value="Train the dataset with various models" style="whiteSpace=wrap;html=1;rounded=1;" vertex="1" parent="WIyWlLk6GJQsqaUBKTNV-1">
          <mxGeometry x="411" y="190" width="126" height="70" as="geometry" />
        </mxCell>
        <mxCell id="vaostGW_WSVgU1aV7aeb-13" value="" style="edgeStyle=orthogonalEdgeStyle;rounded=0;orthogonalLoop=1;jettySize=auto;html=1;" edge="1" parent="WIyWlLk6GJQsqaUBKTNV-1" source="vaostGW_WSVgU1aV7aeb-10" target="vaostGW_WSVgU1aV7aeb-12">
          <mxGeometry relative="1" as="geometry" />
        </mxCell>
        <mxCell id="vaostGW_WSVgU1aV7aeb-10" value="Perform Prompt Engineering on the Results" style="whiteSpace=wrap;html=1;rounded=1;" vertex="1" parent="WIyWlLk6GJQsqaUBKTNV-1">
          <mxGeometry x="414" y="300" width="120" height="60" as="geometry" />
        </mxCell>
        <mxCell id="vaostGW_WSVgU1aV7aeb-12" value="Use prompts and Gen AI to create personalised ADs" style="whiteSpace=wrap;html=1;rounded=1;" vertex="1" parent="WIyWlLk6GJQsqaUBKTNV-1">
          <mxGeometry x="411" y="410" width="126" height="70" as="geometry" />
        </mxCell>
      </root>
    </mxGraphModel>
  </diagram>
</mxfile>
